<?xml version="1.0" encoding="iso-8859-1"?>
<!-- Generator: Adobe Illustrator 19.0.0, SVG Export Plug-In . SVG Version: 6.00 Build 0)  -->
<svg xmlns="http://www.w3.org/2000/svg" xmlns:xlink="http://www.w3.org/1999/xlink" version="1.1" id="Layer_1" x="0px" y="0px" viewBox="0 0 512.002 512.002" style="enable-background:new 0 0 512.002 512.002;" xml:space="preserve">
<g>
	<g>
		<path d="M354.675,103.625c-44.693,0-66.636,29.31-81.157,48.705c-6.48,8.655-13.18,17.604-17.516,17.604    s-11.036-8.949-17.515-17.603c-5.767-7.702-12.303-16.432-20.728-24.441c-4.003-3.807-10.333-3.645-14.138,0.357    c-3.805,4.003-3.645,10.333,0.358,14.138c7.203,6.849,13.203,14.863,18.496,21.933c9.863,13.174,19.179,25.617,33.525,25.617    s23.662-12.443,33.525-25.617c14.279-19.073,30.464-40.691,65.147-40.691c47.154,0,85.515,38.362,85.515,85.515    c0,21.338,0,41.492-40.459,92.455c-20.148,25.381-28.854,67.947-37.272,109.113c-7.793,38.104-16.626,81.292-32.37,81.292    c-16.069,0-26.04-35.872-34.054-64.696c-4.233-15.228-8.232-29.612-13.296-40.801c-2.593-5.731-10.488-23.172-26.736-23.172    s-24.142,17.441-26.736,23.172c-5.065,11.189-9.063,25.573-13.296,40.801c-8.014,28.824-17.986,64.696-34.054,64.696    c-15.744,0-24.577-43.188-32.37-81.292c-8.418-41.166-17.124-83.732-37.272-109.113c-40.459-50.963-40.459-71.118-40.459-92.455    c0-47.153,38.362-85.515,85.515-85.515c5.522,0,10-4.477,10-10s-4.478-10-10-10c-58.181,0-105.515,47.334-105.515,105.515    c0,28.378,3.213,52.513,44.795,104.89c17.177,21.637,25.765,63.633,33.343,100.685c4.901,23.964,9.531,46.599,16.185,63.836    c3.194,8.273,12.914,33.449,35.779,33.449c31.266,0,42.984-42.151,53.322-79.339c4.021-14.465,7.819-28.127,12.248-37.911    c4.08-9.014,7.272-11.419,8.516-11.419c1.244,0,4.436,2.405,8.516,11.419c4.429,9.785,8.227,23.447,12.248,37.911    c10.338,37.189,22.055,79.339,53.322,79.339c22.865,0,32.585-25.176,35.78-33.451c6.655-17.237,11.285-39.872,16.185-63.836    c7.578-37.053,16.166-79.049,33.343-100.685c41.582-52.377,44.795-76.512,44.795-104.89    C460.19,150.959,412.856,103.625,354.675,103.625z"/>
	</g>
</g>
<g>
	<g>
		<path d="M259.081,19.457c-1.121-2.404-3.151-4.264-5.644-5.171L215.85,0.605c-5.188-1.888-10.929,0.787-12.816,5.977    l-24.112,66.249c-0.907,2.493-0.787,5.243,0.333,7.646c1.121,2.404,3.151,4.264,5.644,5.171l8.269,3.01    c-42.061,85.141-40.055,245.503-19.586,362.591c0.85,4.858,5.071,8.279,9.839,8.279c0.571,0,1.151-0.049,1.733-0.151    c5.44-0.951,9.08-6.132,8.129-11.573c-11.614-66.435-16.174-138.25-12.839-202.219c3.358-64.416,14.266-116.041,31.634-150.045    l10.409,3.788c1.129,0.411,2.283,0.606,3.419,0.606c4.085,0,7.92-2.522,9.397-6.583l24.112-66.249    C260.322,24.611,260.201,21.86,259.081,19.457z M219.929,77.115l-18.794-6.84l17.271-47.455l18.794,6.84L219.929,77.115z"/>
	</g>
</g>
<g>
	<g>
		<path d="M325.964,160.127c-5.522,0-10,4.477-10,10s4.478,10,10,10c31.829,0,57.725,25.895,57.725,57.724    c0,11.06,0,21.506-11.628,40.65c-2.868,4.72-1.366,10.871,3.355,13.738c1.622,0.986,3.413,1.455,5.182,1.455    c3.378,0,6.675-1.712,8.557-4.81c13.464-22.166,14.534-35.676,14.534-51.033C403.689,194.994,368.821,160.127,325.964,160.127z"/>
	</g>
</g>
<g>
	<g>
		<path d="M369.799,299.896c-4.312-3.45-10.607-2.75-14.056,1.562l-0.188,0.239c-3.379,4.369-2.584,10.659,1.785,14.038    c1.823,1.41,3.978,2.094,6.117,2.094c2.985,0,5.936-1.332,7.904-3.877C374.811,309.639,374.112,303.346,369.799,299.896z"/>
	</g>
</g>
<g>
</g>
<g>
</g>
<g>
</g>
<g>
</g>
<g>
</g>
<g>
</g>
<g>
</g>
<g>
</g>
<g>
</g>
<g>
</g>
<g>
</g>
<g>
</g>
<g>
</g>
<g>
</g>
<g>
</g>
</svg>
